<?xml version="1.0" encoding="UTF-8" standalone="no"?>
<!-- Created with Inkscape (http://www.inkscape.org/) -->

<svg
   xmlns:dc="http://purl.org/dc/elements/1.1/"
   xmlns:cc="http://creativecommons.org/ns#"
   xmlns:rdf="http://www.w3.org/1999/02/22-rdf-syntax-ns#"
   xmlns:svg="http://www.w3.org/2000/svg"
   xmlns="http://www.w3.org/2000/svg"
   xmlns:sodipodi="http://sodipodi.sourceforge.net/DTD/sodipodi-0.dtd"
   xmlns:inkscape="http://www.inkscape.org/namespaces/inkscape"
   width="210mm"
   height="297mm"
   viewBox="0 0 744.09448819 1052.3622047"
   id="svg2"
   version="1.1"
   inkscape:version="0.91 r13725"
   sodipodi:docname="littleDotTubeProtectBrimbelleLab.svg">
  <defs
     id="defs4" />
  <sodipodi:namedview
     id="base"
     pagecolor="#ffffff"
     bordercolor="#666666"
     borderopacity="1.0"
     inkscape:pageopacity="0.0"
     inkscape:pageshadow="2"
     inkscape:zoom="2.2909631"
     inkscape:cx="217.15704"
     inkscape:cy="165.1563"
     inkscape:document-units="px"
     inkscape:current-layer="layer1"
     showgrid="false"
     inkscape:window-width="1850"
     inkscape:window-height="1350"
     inkscape:window-x="103"
     inkscape:window-y="0"
     inkscape:window-maximized="0" />
  <metadata
     id="metadata7">
    <rdf:RDF>
      <cc:Work
         rdf:about="">
        <dc:format>image/svg+xml</dc:format>
        <dc:type
           rdf:resource="http://purl.org/dc/dcmitype/StillImage" />
        <dc:title />
      </cc:Work>
    </rdf:RDF>
  </metadata>
  <g
     inkscape:label="Layer 1"
     inkscape:groupmode="layer"
     id="layer1">
    <circle
       r="43.79134"
       cy="777.75592"
       cx="275.95276"
       id="circle4292"
       style="fill:none;stroke:#000000;stroke-width:1;stroke-linejoin:miter;stroke-miterlimit:4;stroke-dasharray:none;stroke-dashoffset:0;stroke-opacity:1" />
    <circle
       r="3.0433071"
       cy="777.65527"
       cx="223.50226"
       id="circle4296"
       style="opacity:1;fill:none;fill-opacity:1;stroke:#000000;stroke-width:0.99999994;stroke-linejoin:miter;stroke-miterlimit:4;stroke-dasharray:none;stroke-dashoffset:0;stroke-opacity:1" />
    <circle
       r="3.0433071"
       cy="732.41443"
       cx="249.46109"
       id="circle4298"
       style="opacity:1;fill:none;fill-opacity:1;stroke:#000000;stroke-width:0.99999994;stroke-linejoin:miter;stroke-miterlimit:4;stroke-dasharray:none;stroke-dashoffset:0;stroke-opacity:1" />
    <circle
       r="3.0433071"
       cy="732.41443"
       cx="302.24396"
       id="circle4300"
       style="opacity:1;fill:none;fill-opacity:1;stroke:#000000;stroke-width:0.99999994;stroke-linejoin:miter;stroke-miterlimit:4;stroke-dasharray:none;stroke-dashoffset:0;stroke-opacity:1" />
    <circle
       r="3.0433071"
       cy="777.65527"
       cx="328.25513"
       id="circle4302"
       style="opacity:1;fill:none;fill-opacity:1;stroke:#000000;stroke-width:1;stroke-linejoin:miter;stroke-miterlimit:4;stroke-dasharray:none;stroke-dashoffset:0;stroke-opacity:1" />
    <circle
       r="3.0433071"
       cy="823.27124"
       cx="302.24396"
       id="circle4304"
       style="opacity:1;fill:none;fill-opacity:1;stroke:#000000;stroke-width:1;stroke-linejoin:miter;stroke-miterlimit:4;stroke-dasharray:none;stroke-dashoffset:0;stroke-opacity:1" />
    <circle
       r="3.0433071"
       cy="823.27124"
       cx="249.46109"
       id="circle4306"
       style="opacity:1;fill:none;fill-opacity:1;stroke:#000000;stroke-width:1;stroke-linejoin:miter;stroke-miterlimit:4;stroke-dasharray:none;stroke-dashoffset:0;stroke-opacity:1" />
    <rect
       style="fill:none;fill-rule:evenodd;stroke:#000000;stroke-width:1;stroke-linecap:butt;stroke-linejoin:miter;stroke-miterlimit:4;stroke-dasharray:none;stroke-opacity:1"
       id="rect3336"
       width="353.33072"
       height="636.79529"
       x="0.5"
       y="415.06693"
       rx="7.0961003"
       ry="7.0918746" />
    <rect
       style="fill:none;stroke:#000000;stroke-width:1;stroke-linejoin:miter;stroke-miterlimit:4;stroke-dasharray:none;stroke-dashoffset:0;stroke-opacity:1"
       id="rect4138"
       width="317.89761"
       height="250.5748"
       x="18.216536"
       y="436.32678"
       rx="3.5834432"
       ry="3.594382" />
    <circle
       style="fill:none;stroke:#000000;stroke-width:1;stroke-linejoin:miter;stroke-miterlimit:4;stroke-dasharray:none;stroke-dashoffset:0;stroke-opacity:1"
       id="path4159"
       cx="77.952759"
       cy="777.75592"
       r="43.79134" />
    <ellipse
       style="opacity:1;fill:none;fill-opacity:1;stroke:#000000;stroke-width:0.99999988;stroke-linejoin:miter;stroke-miterlimit:4;stroke-dasharray:none;stroke-dashoffset:0;stroke-opacity:1"
       id="path4220"
       cx="77.952751"
       cy="931.88977"
       rx="38.476376"
       ry="38.476379" />
    <g
       id="g4270"
       transform="translate(150,332)">
      <circle
         r="3.0433071"
         cy="189.5511"
         cx="303.74368"
         id="path4222"
         style="opacity:1;fill:none;fill-opacity:1;stroke:#000000;stroke-width:1;stroke-linejoin:miter;stroke-miterlimit:4;stroke-dasharray:none;stroke-dashoffset:0;stroke-opacity:1" />
      <circle
         r="3.0433071"
         cy="189.5511"
         cx="251.14848"
         id="path4252"
         style="opacity:1;fill:none;fill-opacity:1;stroke:#000000;stroke-width:0.99999994;stroke-linejoin:miter;stroke-miterlimit:4;stroke-dasharray:none;stroke-dashoffset:0;stroke-opacity:1" />
      <circle
         r="3.0433071"
         cy="280.30359"
         cx="251.14848"
         id="path4254"
         style="opacity:1;fill:none;fill-opacity:1;stroke:#000000;stroke-width:1;stroke-linejoin:miter;stroke-miterlimit:4;stroke-dasharray:none;stroke-dashoffset:0;stroke-opacity:1" />
      <circle
         r="3.0433071"
         cy="234.69818"
         cx="224.90819"
         id="path4256"
         style="opacity:1;fill:none;fill-opacity:1;stroke:#000000;stroke-width:1;stroke-linejoin:miter;stroke-miterlimit:4;stroke-dasharray:none;stroke-dashoffset:0;stroke-opacity:1" />
      <circle
         r="3.0433071"
         cy="234.69818"
         cx="329.64023"
         id="path4258"
         style="opacity:1;fill:none;fill-opacity:1;stroke:#000000;stroke-width:1;stroke-linejoin:miter;stroke-miterlimit:4;stroke-dasharray:none;stroke-dashoffset:0;stroke-opacity:1" />
      <circle
         r="3.0433071"
         cy="280.30359"
         cx="303.74368"
         id="path4260"
         style="opacity:1;fill:none;fill-opacity:1;stroke:#000000;stroke-width:1;stroke-linejoin:miter;stroke-miterlimit:4;stroke-dasharray:none;stroke-dashoffset:0;stroke-opacity:1" />
      <circle
         r="43.79134"
         cy="234.81276"
         cx="277.38879"
         id="path4262"
         style="opacity:1;fill:none;fill-opacity:1;stroke:#000000;stroke-width:1;stroke-linejoin:miter;stroke-miterlimit:4;stroke-dasharray:none;stroke-dashoffset:0;stroke-opacity:1" />
      <circle
         r="61.507874"
         cy="234.81276"
         cx="277.38879"
         id="path4264"
         style="opacity:1;fill:none;fill-opacity:1;stroke:#000000;stroke-width:1;stroke-linejoin:miter;stroke-miterlimit:4;stroke-dasharray:none;stroke-dashoffset:0;stroke-opacity:1" />
    </g>
    <circle
       style="opacity:1;fill:none;fill-opacity:1;stroke:#000000;stroke-width:0.99999994;stroke-linejoin:miter;stroke-miterlimit:4;stroke-dasharray:none;stroke-dashoffset:0;stroke-opacity:1"
       id="path4280"
       cx="25.502254"
       cy="777.65527"
       r="3.0433071" />
    <circle
       style="opacity:1;fill:none;fill-opacity:1;stroke:#000000;stroke-width:0.99999994;stroke-linejoin:miter;stroke-miterlimit:4;stroke-dasharray:none;stroke-dashoffset:0;stroke-opacity:1"
       id="path4282"
       cx="51.46109"
       cy="732.41443"
       r="3.0433071" />
    <circle
       style="opacity:1;fill:none;fill-opacity:1;stroke:#000000;stroke-width:0.99999994;stroke-linejoin:miter;stroke-miterlimit:4;stroke-dasharray:none;stroke-dashoffset:0;stroke-opacity:1"
       id="path4284"
       cx="104.24396"
       cy="732.41443"
       r="3.0433071" />
    <circle
       style="opacity:1;fill:none;fill-opacity:1;stroke:#000000;stroke-width:1;stroke-linejoin:miter;stroke-miterlimit:4;stroke-dasharray:none;stroke-dashoffset:0;stroke-opacity:1"
       id="path4286"
       cx="130.25511"
       cy="777.65527"
       r="3.0433071" />
    <circle
       style="opacity:1;fill:none;fill-opacity:1;stroke:#000000;stroke-width:1;stroke-linejoin:miter;stroke-miterlimit:4;stroke-dasharray:none;stroke-dashoffset:0;stroke-opacity:1"
       id="path4288"
       cx="104.24396"
       cy="823.27124"
       r="3.0433071" />
    <circle
       style="opacity:1;fill:none;fill-opacity:1;stroke:#000000;stroke-width:1;stroke-linejoin:miter;stroke-miterlimit:4;stroke-dasharray:none;stroke-dashoffset:0;stroke-opacity:1"
       id="path4290"
       cx="51.46109"
       cy="823.27124"
       r="3.0433071" />
    <circle
       r="3.0433071"
       cy="891.17297"
       cx="53.911129"
       id="circle4330"
       style="opacity:1;fill:none;fill-opacity:1;stroke:#000000;stroke-width:1;stroke-linejoin:miter;stroke-miterlimit:4;stroke-dasharray:none;stroke-dashoffset:0;stroke-opacity:1" />
    <circle
       r="3.0433071"
       cy="891.17297"
       cx="101.36436"
       id="circle4332"
       style="opacity:1;fill:none;fill-opacity:1;stroke:#000000;stroke-width:1;stroke-linejoin:miter;stroke-miterlimit:4;stroke-dasharray:none;stroke-dashoffset:0;stroke-opacity:1" />
    <circle
       r="3.0433071"
       cy="931.97705"
       cx="124.70447"
       id="circle4334"
       style="opacity:1;fill:none;fill-opacity:1;stroke:#000000;stroke-width:1;stroke-linejoin:miter;stroke-miterlimit:4;stroke-dasharray:none;stroke-dashoffset:0;stroke-opacity:1" />
    <circle
       r="3.0433071"
       cy="972.91644"
       cx="101.36436"
       id="circle4336"
       style="opacity:1;fill:none;fill-opacity:1;stroke:#000000;stroke-width:1;stroke-linejoin:miter;stroke-miterlimit:4;stroke-dasharray:none;stroke-dashoffset:0;stroke-opacity:1" />
    <circle
       r="3.0433071"
       cy="972.91644"
       cx="53.911129"
       id="circle4338"
       style="opacity:1;fill:none;fill-opacity:1;stroke:#000000;stroke-width:1;stroke-linejoin:miter;stroke-miterlimit:4;stroke-dasharray:none;stroke-dashoffset:0;stroke-opacity:1" />
    <circle
       r="3.0433071"
       cy="931.97705"
       cx="30.54241"
       id="circle4340"
       style="opacity:1;fill:none;fill-opacity:1;stroke:#000000;stroke-width:1;stroke-linejoin:miter;stroke-miterlimit:4;stroke-dasharray:none;stroke-dashoffset:0;stroke-opacity:1" />
    <ellipse
       ry="38.476379"
       rx="38.476376"
       cy="931.88977"
       cx="277.01663"
       id="ellipse4342"
       style="opacity:1;fill:none;fill-opacity:1;stroke:#000000;stroke-width:0.99999988;stroke-linejoin:miter;stroke-miterlimit:4;stroke-dasharray:none;stroke-dashoffset:0;stroke-opacity:1" />
    <circle
       style="opacity:1;fill:none;fill-opacity:1;stroke:#000000;stroke-width:1;stroke-linejoin:miter;stroke-miterlimit:4;stroke-dasharray:none;stroke-dashoffset:0;stroke-opacity:1"
       id="circle4346"
       cx="252.97501"
       cy="891.17297"
       r="3.0433071" />
    <circle
       style="opacity:1;fill:none;fill-opacity:1;stroke:#000000;stroke-width:1;stroke-linejoin:miter;stroke-miterlimit:4;stroke-dasharray:none;stroke-dashoffset:0;stroke-opacity:1"
       id="circle4348"
       cx="300.42822"
       cy="891.17297"
       r="3.0433071" />
    <circle
       style="opacity:1;fill:none;fill-opacity:1;stroke:#000000;stroke-width:1;stroke-linejoin:miter;stroke-miterlimit:4;stroke-dasharray:none;stroke-dashoffset:0;stroke-opacity:1"
       id="circle4350"
       cx="323.76834"
       cy="931.97705"
       r="3.0433071" />
    <circle
       style="opacity:1;fill:none;fill-opacity:1;stroke:#000000;stroke-width:1;stroke-linejoin:miter;stroke-miterlimit:4;stroke-dasharray:none;stroke-dashoffset:0;stroke-opacity:1"
       id="circle4352"
       cx="300.42822"
       cy="972.91644"
       r="3.0433071" />
    <circle
       style="opacity:1;fill:none;fill-opacity:1;stroke:#000000;stroke-width:1;stroke-linejoin:miter;stroke-miterlimit:4;stroke-dasharray:none;stroke-dashoffset:0;stroke-opacity:1"
       id="circle4354"
       cx="252.97501"
       cy="972.91644"
       r="3.0433071" />
    <circle
       style="opacity:1;fill:none;fill-opacity:1;stroke:#000000;stroke-width:1;stroke-linejoin:miter;stroke-miterlimit:4;stroke-dasharray:none;stroke-dashoffset:0;stroke-opacity:1"
       id="circle4356"
       cx="229.60629"
       cy="931.97705"
       r="3.0433071" />
    <circle
       r="38.476379"
       cy="499.00232"
       cx="85.390961"
       id="circle4377"
       style="opacity:1;fill:none;fill-opacity:1;stroke:#000000;stroke-width:1;stroke-linejoin:miter;stroke-miterlimit:4;stroke-dasharray:none;stroke-dashoffset:0;stroke-opacity:1" />
    <circle
       r="56.192913"
       cy="499.00232"
       cx="85.390961"
       id="circle4379"
       style="opacity:1;fill:none;fill-opacity:1;stroke:#000000;stroke-width:1;stroke-linejoin:miter;stroke-miterlimit:4;stroke-dasharray:none;stroke-dashoffset:0;stroke-opacity:1" />
    <circle
       r="3.0433071"
       cy="458.15329"
       cx="61.554626"
       id="circle4383"
       style="opacity:1;fill:none;fill-opacity:1;stroke:#000000;stroke-width:1;stroke-linejoin:miter;stroke-miterlimit:4;stroke-dasharray:none;stroke-dashoffset:0;stroke-opacity:1" />
    <circle
       r="3.0433071"
       cy="458.15329"
       cx="109.00784"
       id="circle4385"
       style="opacity:1;fill:none;fill-opacity:1;stroke:#000000;stroke-width:1;stroke-linejoin:miter;stroke-miterlimit:4;stroke-dasharray:none;stroke-dashoffset:0;stroke-opacity:1" />
    <circle
       r="3.0433071"
       cy="498.95737"
       cx="132.34796"
       id="circle4387"
       style="opacity:1;fill:none;fill-opacity:1;stroke:#000000;stroke-width:1;stroke-linejoin:miter;stroke-miterlimit:4;stroke-dasharray:none;stroke-dashoffset:0;stroke-opacity:1" />
    <circle
       r="3.0433071"
       cy="539.89679"
       cx="109.00784"
       id="circle4389"
       style="opacity:1;fill:none;fill-opacity:1;stroke:#000000;stroke-width:1;stroke-linejoin:miter;stroke-miterlimit:4;stroke-dasharray:none;stroke-dashoffset:0;stroke-opacity:1" />
    <circle
       r="3.0433071"
       cy="539.89679"
       cx="61.554626"
       id="circle4391"
       style="opacity:1;fill:none;fill-opacity:1;stroke:#000000;stroke-width:1;stroke-linejoin:miter;stroke-miterlimit:4;stroke-dasharray:none;stroke-dashoffset:0;stroke-opacity:1" />
    <circle
       r="3.0433071"
       cy="498.95737"
       cx="38.185913"
       id="circle4393"
       style="opacity:1;fill:none;fill-opacity:1;stroke:#000000;stroke-width:1;stroke-linejoin:miter;stroke-miterlimit:4;stroke-dasharray:none;stroke-dashoffset:0;stroke-opacity:1" />
    <circle
       style="opacity:1;fill:none;fill-opacity:1;stroke:#000000;stroke-width:1;stroke-linejoin:miter;stroke-miterlimit:4;stroke-dasharray:none;stroke-dashoffset:0;stroke-opacity:1"
       id="circle4395"
       cx="133.39096"
       cy="611.00232"
       r="38.476379" />
    <circle
       style="opacity:1;fill:none;fill-opacity:1;stroke:#000000;stroke-width:1;stroke-linejoin:miter;stroke-miterlimit:4;stroke-dasharray:none;stroke-dashoffset:0;stroke-opacity:1"
       id="circle4397"
       cx="133.39096"
       cy="611.00232"
       r="56.192913" />
    <circle
       style="opacity:1;fill:none;fill-opacity:1;stroke:#000000;stroke-width:1;stroke-linejoin:miter;stroke-miterlimit:4;stroke-dasharray:none;stroke-dashoffset:0;stroke-opacity:1"
       id="circle4401"
       cx="109.55463"
       cy="570.15332"
       r="3.0433071" />
    <circle
       style="opacity:1;fill:none;fill-opacity:1;stroke:#000000;stroke-width:1;stroke-linejoin:miter;stroke-miterlimit:4;stroke-dasharray:none;stroke-dashoffset:0;stroke-opacity:1"
       id="circle4403"
       cx="157.00784"
       cy="570.15332"
       r="3.0433071" />
    <circle
       style="opacity:1;fill:none;fill-opacity:1;stroke:#000000;stroke-width:1;stroke-linejoin:miter;stroke-miterlimit:4;stroke-dasharray:none;stroke-dashoffset:0;stroke-opacity:1"
       id="circle4405"
       cx="180.34796"
       cy="610.9574"
       r="3.0433071" />
    <circle
       style="opacity:1;fill:none;fill-opacity:1;stroke:#000000;stroke-width:1;stroke-linejoin:miter;stroke-miterlimit:4;stroke-dasharray:none;stroke-dashoffset:0;stroke-opacity:1"
       id="circle4407"
       cx="157.00784"
       cy="651.89679"
       r="3.0433071" />
    <circle
       style="opacity:1;fill:none;fill-opacity:1;stroke:#000000;stroke-width:1;stroke-linejoin:miter;stroke-miterlimit:4;stroke-dasharray:none;stroke-dashoffset:0;stroke-opacity:1"
       id="circle4409"
       cx="109.55463"
       cy="651.89679"
       r="3.0433071" />
    <circle
       style="opacity:1;fill:none;fill-opacity:1;stroke:#000000;stroke-width:1;stroke-linejoin:miter;stroke-miterlimit:4;stroke-dasharray:none;stroke-dashoffset:0;stroke-opacity:1"
       id="circle4411"
       cx="86.185913"
       cy="610.9574"
       r="3.0433071" />
    <g
       transform="translate(150,466)"
       id="g4449">
      <circle
         style="opacity:1;fill:none;fill-opacity:1;stroke:#000000;stroke-width:1;stroke-linejoin:miter;stroke-miterlimit:4;stroke-dasharray:none;stroke-dashoffset:0;stroke-opacity:1"
         id="circle4451"
         cx="303.74368"
         cy="189.5511"
         r="3.0433071" />
      <circle
         style="opacity:1;fill:none;fill-opacity:1;stroke:#000000;stroke-width:0.99999994;stroke-linejoin:miter;stroke-miterlimit:4;stroke-dasharray:none;stroke-dashoffset:0;stroke-opacity:1"
         id="circle4453"
         cx="251.14848"
         cy="189.5511"
         r="3.0433071" />
      <circle
         style="opacity:1;fill:none;fill-opacity:1;stroke:#000000;stroke-width:1;stroke-linejoin:miter;stroke-miterlimit:4;stroke-dasharray:none;stroke-dashoffset:0;stroke-opacity:1"
         id="circle4455"
         cx="251.14848"
         cy="280.30359"
         r="3.0433071" />
      <circle
         style="opacity:1;fill:none;fill-opacity:1;stroke:#000000;stroke-width:1;stroke-linejoin:miter;stroke-miterlimit:4;stroke-dasharray:none;stroke-dashoffset:0;stroke-opacity:1"
         id="circle4457"
         cx="224.90819"
         cy="234.69818"
         r="3.0433071" />
      <circle
         style="opacity:1;fill:none;fill-opacity:1;stroke:#000000;stroke-width:1;stroke-linejoin:miter;stroke-miterlimit:4;stroke-dasharray:none;stroke-dashoffset:0;stroke-opacity:1"
         id="circle4459"
         cx="329.64023"
         cy="234.69818"
         r="3.0433071" />
      <circle
         style="opacity:1;fill:none;fill-opacity:1;stroke:#000000;stroke-width:1;stroke-linejoin:miter;stroke-miterlimit:4;stroke-dasharray:none;stroke-dashoffset:0;stroke-opacity:1"
         id="circle4461"
         cx="303.74368"
         cy="280.30359"
         r="3.0433071" />
      <circle
         style="opacity:1;fill:none;fill-opacity:1;stroke:#000000;stroke-width:1;stroke-linejoin:miter;stroke-miterlimit:4;stroke-dasharray:none;stroke-dashoffset:0;stroke-opacity:1"
         id="circle4463"
         cx="277.38879"
         cy="234.81276"
         r="43.79134" />
      <circle
         style="opacity:1;fill:none;fill-opacity:1;stroke:#000000;stroke-width:1;stroke-linejoin:miter;stroke-miterlimit:4;stroke-dasharray:none;stroke-dashoffset:0;stroke-opacity:1"
         id="circle4465"
         cx="277.38879"
         cy="234.81276"
         r="61.507874" />
    </g>
    <circle
       style="opacity:1;fill:none;fill-opacity:1;stroke:#000000;stroke-width:1;stroke-linejoin:miter;stroke-miterlimit:4;stroke-dasharray:none;stroke-dashoffset:0;stroke-opacity:1"
       id="circle4467"
       cx="219.39096"
       cy="499.00232"
       r="38.476379" />
    <circle
       style="opacity:1;fill:none;fill-opacity:1;stroke:#000000;stroke-width:1;stroke-linejoin:miter;stroke-miterlimit:4;stroke-dasharray:none;stroke-dashoffset:0;stroke-opacity:1"
       id="circle4469"
       cx="219.39096"
       cy="499.00232"
       r="56.192913" />
    <circle
       style="opacity:1;fill:none;fill-opacity:1;stroke:#000000;stroke-width:1;stroke-linejoin:miter;stroke-miterlimit:4;stroke-dasharray:none;stroke-dashoffset:0;stroke-opacity:1"
       id="circle4473"
       cx="195.55463"
       cy="458.15329"
       r="3.0433071" />
    <circle
       style="opacity:1;fill:none;fill-opacity:1;stroke:#000000;stroke-width:1;stroke-linejoin:miter;stroke-miterlimit:4;stroke-dasharray:none;stroke-dashoffset:0;stroke-opacity:1"
       id="circle4475"
       cx="243.00784"
       cy="458.15329"
       r="3.0433071" />
    <circle
       style="opacity:1;fill:none;fill-opacity:1;stroke:#000000;stroke-width:1;stroke-linejoin:miter;stroke-miterlimit:4;stroke-dasharray:none;stroke-dashoffset:0;stroke-opacity:1"
       id="circle4477"
       cx="266.34796"
       cy="498.95737"
       r="3.0433071" />
    <circle
       style="opacity:1;fill:none;fill-opacity:1;stroke:#000000;stroke-width:1;stroke-linejoin:miter;stroke-miterlimit:4;stroke-dasharray:none;stroke-dashoffset:0;stroke-opacity:1"
       id="circle4479"
       cx="243.00784"
       cy="539.89679"
       r="3.0433071" />
    <circle
       style="opacity:1;fill:none;fill-opacity:1;stroke:#000000;stroke-width:1;stroke-linejoin:miter;stroke-miterlimit:4;stroke-dasharray:none;stroke-dashoffset:0;stroke-opacity:1"
       id="circle4481"
       cx="195.55463"
       cy="539.89679"
       r="3.0433071" />
    <circle
       style="opacity:1;fill:none;fill-opacity:1;stroke:#000000;stroke-width:1;stroke-linejoin:miter;stroke-miterlimit:4;stroke-dasharray:none;stroke-dashoffset:0;stroke-opacity:1"
       id="circle4483"
       cx="172.18591"
       cy="498.95737"
       r="3.0433071" />
    <circle
       r="38.476379"
       cy="611.00232"
       cx="267.39096"
       id="circle4485"
       style="opacity:1;fill:none;fill-opacity:1;stroke:#000000;stroke-width:1;stroke-linejoin:miter;stroke-miterlimit:4;stroke-dasharray:none;stroke-dashoffset:0;stroke-opacity:1" />
    <circle
       r="56.192913"
       cy="611.00232"
       cx="267.39096"
       id="circle4487"
       style="opacity:1;fill:none;fill-opacity:1;stroke:#000000;stroke-width:1;stroke-linejoin:miter;stroke-miterlimit:4;stroke-dasharray:none;stroke-dashoffset:0;stroke-opacity:1" />
    <circle
       r="3.0433071"
       cy="570.15332"
       cx="243.55463"
       id="circle4491"
       style="opacity:1;fill:none;fill-opacity:1;stroke:#000000;stroke-width:1;stroke-linejoin:miter;stroke-miterlimit:4;stroke-dasharray:none;stroke-dashoffset:0;stroke-opacity:1" />
    <circle
       r="3.0433071"
       cy="570.15332"
       cx="291.00784"
       id="circle4493"
       style="opacity:1;fill:none;fill-opacity:1;stroke:#000000;stroke-width:1;stroke-linejoin:miter;stroke-miterlimit:4;stroke-dasharray:none;stroke-dashoffset:0;stroke-opacity:1" />
    <circle
       r="3.0433071"
       cy="610.9574"
       cx="314.34796"
       id="circle4495"
       style="opacity:1;fill:none;fill-opacity:1;stroke:#000000;stroke-width:1;stroke-linejoin:miter;stroke-miterlimit:4;stroke-dasharray:none;stroke-dashoffset:0;stroke-opacity:1" />
    <circle
       r="3.0433071"
       cy="651.89679"
       cx="291.00784"
       id="circle4497"
       style="opacity:1;fill:none;fill-opacity:1;stroke:#000000;stroke-width:1;stroke-linejoin:miter;stroke-miterlimit:4;stroke-dasharray:none;stroke-dashoffset:0;stroke-opacity:1" />
    <circle
       r="3.0433071"
       cy="651.89679"
       cx="243.55463"
       id="circle4499"
       style="opacity:1;fill:none;fill-opacity:1;stroke:#000000;stroke-width:1;stroke-linejoin:miter;stroke-miterlimit:4;stroke-dasharray:none;stroke-dashoffset:0;stroke-opacity:1" />
    <circle
       r="3.0433071"
       cy="610.9574"
       cx="220.18591"
       id="circle4501"
       style="opacity:1;fill:none;fill-opacity:1;stroke:#000000;stroke-width:1;stroke-linejoin:miter;stroke-miterlimit:4;stroke-dasharray:none;stroke-dashoffset:0;stroke-opacity:1" />
    <g
       transform="translate(148,602)"
       id="g4503">
      <circle
         style="opacity:1;fill:none;fill-opacity:1;stroke:#000000;stroke-width:1;stroke-linejoin:miter;stroke-miterlimit:4;stroke-dasharray:none;stroke-dashoffset:0;stroke-opacity:1"
         id="circle4505"
         cx="303.74368"
         cy="189.5511"
         r="3.0433071" />
      <circle
         style="opacity:1;fill:none;fill-opacity:1;stroke:#000000;stroke-width:0.99999994;stroke-linejoin:miter;stroke-miterlimit:4;stroke-dasharray:none;stroke-dashoffset:0;stroke-opacity:1"
         id="circle4507"
         cx="251.14848"
         cy="189.5511"
         r="3.0433071" />
      <circle
         style="opacity:1;fill:none;fill-opacity:1;stroke:#000000;stroke-width:1;stroke-linejoin:miter;stroke-miterlimit:4;stroke-dasharray:none;stroke-dashoffset:0;stroke-opacity:1"
         id="circle4509"
         cx="251.14848"
         cy="280.30359"
         r="3.0433071" />
      <circle
         style="opacity:1;fill:none;fill-opacity:1;stroke:#000000;stroke-width:1;stroke-linejoin:miter;stroke-miterlimit:4;stroke-dasharray:none;stroke-dashoffset:0;stroke-opacity:1"
         id="circle4511"
         cx="224.90819"
         cy="234.69818"
         r="3.0433071" />
      <circle
         style="opacity:1;fill:none;fill-opacity:1;stroke:#000000;stroke-width:1;stroke-linejoin:miter;stroke-miterlimit:4;stroke-dasharray:none;stroke-dashoffset:0;stroke-opacity:1"
         id="circle4513"
         cx="329.64023"
         cy="234.69818"
         r="3.0433071" />
      <circle
         style="opacity:1;fill:none;fill-opacity:1;stroke:#000000;stroke-width:1;stroke-linejoin:miter;stroke-miterlimit:4;stroke-dasharray:none;stroke-dashoffset:0;stroke-opacity:1"
         id="circle4515"
         cx="303.74368"
         cy="280.30359"
         r="3.0433071" />
      <circle
         style="opacity:1;fill:none;fill-opacity:1;stroke:#000000;stroke-width:1;stroke-linejoin:miter;stroke-miterlimit:4;stroke-dasharray:none;stroke-dashoffset:0;stroke-opacity:1"
         id="circle4517"
         cx="277.38879"
         cy="234.81276"
         r="43.79134" />
      <circle
         style="opacity:1;fill:none;fill-opacity:1;stroke:#000000;stroke-width:1;stroke-linejoin:miter;stroke-miterlimit:4;stroke-dasharray:none;stroke-dashoffset:0;stroke-opacity:1"
         id="circle4519"
         cx="277.38879"
         cy="234.81276"
         r="61.507874" />
    </g>
    <g
       id="g4521"
       transform="translate(148,742)">
      <circle
         r="3.0433071"
         cy="189.5511"
         cx="303.74368"
         id="circle4523"
         style="opacity:1;fill:none;fill-opacity:1;stroke:#000000;stroke-width:1;stroke-linejoin:miter;stroke-miterlimit:4;stroke-dasharray:none;stroke-dashoffset:0;stroke-opacity:1" />
      <circle
         r="3.0433071"
         cy="189.5511"
         cx="251.14848"
         id="circle4525"
         style="opacity:1;fill:none;fill-opacity:1;stroke:#000000;stroke-width:0.99999994;stroke-linejoin:miter;stroke-miterlimit:4;stroke-dasharray:none;stroke-dashoffset:0;stroke-opacity:1" />
      <circle
         r="3.0433071"
         cy="280.30359"
         cx="251.14848"
         id="circle4527"
         style="opacity:1;fill:none;fill-opacity:1;stroke:#000000;stroke-width:1;stroke-linejoin:miter;stroke-miterlimit:4;stroke-dasharray:none;stroke-dashoffset:0;stroke-opacity:1" />
      <circle
         r="3.0433071"
         cy="234.69818"
         cx="224.90819"
         id="circle4529"
         style="opacity:1;fill:none;fill-opacity:1;stroke:#000000;stroke-width:1;stroke-linejoin:miter;stroke-miterlimit:4;stroke-dasharray:none;stroke-dashoffset:0;stroke-opacity:1" />
      <circle
         r="3.0433071"
         cy="234.69818"
         cx="329.64023"
         id="circle4531"
         style="opacity:1;fill:none;fill-opacity:1;stroke:#000000;stroke-width:1;stroke-linejoin:miter;stroke-miterlimit:4;stroke-dasharray:none;stroke-dashoffset:0;stroke-opacity:1" />
      <circle
         r="3.0433071"
         cy="280.30359"
         cx="303.74368"
         id="circle4533"
         style="opacity:1;fill:none;fill-opacity:1;stroke:#000000;stroke-width:1;stroke-linejoin:miter;stroke-miterlimit:4;stroke-dasharray:none;stroke-dashoffset:0;stroke-opacity:1" />
      <circle
         r="43.79134"
         cy="234.81276"
         cx="277.38879"
         id="circle4535"
         style="opacity:1;fill:none;fill-opacity:1;stroke:#000000;stroke-width:1;stroke-linejoin:miter;stroke-miterlimit:4;stroke-dasharray:none;stroke-dashoffset:0;stroke-opacity:1" />
      <circle
         r="61.507874"
         cy="234.81276"
         cx="277.38879"
         id="circle4537"
         style="opacity:1;fill:none;fill-opacity:1;stroke:#000000;stroke-width:1;stroke-linejoin:miter;stroke-miterlimit:4;stroke-dasharray:none;stroke-dashoffset:0;stroke-opacity:1" />
    </g>
    <g
       style="font-style:normal;font-variant:normal;font-weight:normal;font-stretch:normal;font-size:40px;line-height:125%;font-family:'Myanmar Sangam MN';-inkscape-font-specification:'Myanmar Sangam MN';letter-spacing:0px;word-spacing:0px;fill:#000000;fill-opacity:1;stroke:none;stroke-width:1px;stroke-linecap:butt;stroke-linejoin:miter;stroke-opacity:1"
       id="text4596"
       transform="translate(-2,0)">
      <path
         d="m 22.984637,1038.6058 q -0.405,0.765 -1.62,0.765 -0.6075,0 -1.0575,-0.18 -0.4275,-0.2025 -0.63,-0.63 l -5.175,-10.845 q -0.135,-0.225 -0.135,-0.4275 0,-0.3825 0.4275,-0.585 0.4275,-0.225 1.125,-0.225 0.99,0 1.215,0.5175 l 4.2075,9.45 4.725,-9.09 q 0.27,-0.5175 0.5625,-0.6975 0.315,-0.18 0.9,-0.18 0.3375,0 0.54,0.068 0.225,0.045 0.36,0.1575 0.1575,0.09 0.27,0.27 0.1125,0.1575 0.225,0.3825 l 4.545,9.09 4.2975,-9.45 q 0.225,-0.5175 1.2375,-0.5175 0.6975,0 1.125,0.225 0.4275,0.2025 0.4275,0.585 0,0.2025 -0.135,0.4275 l -5.31,10.845 q -0.2025,0.4275 -0.6525,0.63 -0.4275,0.18 -1.0125,0.18 -0.5625,0 -1.0125,-0.18 -0.4275,-0.18 -0.63,-0.585 l -4.32,-8.775 -4.5,8.775 z"
         style="font-style:normal;font-variant:normal;font-weight:normal;font-stretch:normal;font-size:22.5px;font-family:Neuropol;-inkscape-font-specification:Neuropol;fill:#0000ff;fill-opacity:1"
         id="path4465"
         inkscape:connector-curvature="0" />
      <path
         d="m 50.054949,1038.6058 q -0.405,0.765 -1.62,0.765 -0.6075,0 -1.0575,-0.18 -0.4275,-0.2025 -0.63,-0.63 l -5.175,-10.845 q -0.135,-0.225 -0.135,-0.4275 0,-0.3825 0.4275,-0.585 0.4275,-0.225 1.125,-0.225 0.99,0 1.215,0.5175 l 4.2075,9.45 4.725,-9.09 q 0.27,-0.5175 0.5625,-0.6975 0.315,-0.18 0.9,-0.18 0.3375,0 0.54,0.068 0.225,0.045 0.36,0.1575 0.1575,0.09 0.27,0.27 0.1125,0.1575 0.225,0.3825 l 4.545,9.09 4.2975,-9.45 q 0.225,-0.5175 1.2375,-0.5175 0.6975,0 1.125,0.225 0.4275,0.2025 0.4275,0.585 0,0.2025 -0.135,0.4275 l -5.31,10.845 q -0.2025,0.4275 -0.6525,0.63 -0.4275,0.18 -1.0125,0.18 -0.5625,0 -1.0125,-0.18 -0.4275,-0.18 -0.63,-0.585 l -4.32,-8.775 -4.5,8.775 z"
         style="font-style:normal;font-variant:normal;font-weight:normal;font-stretch:normal;font-size:22.5px;font-family:Neuropol;-inkscape-font-specification:Neuropol;fill:#0000ff;fill-opacity:1"
         id="path4467"
         inkscape:connector-curvature="0" />
      <path
         d="m 77.125262,1038.6058 q -0.405,0.765 -1.62,0.765 -0.6075,0 -1.0575,-0.18 -0.4275,-0.2025 -0.63,-0.63 l -5.175,-10.845 q -0.135,-0.225 -0.135,-0.4275 0,-0.3825 0.4275,-0.585 0.4275,-0.225 1.125,-0.225 0.99,0 1.215,0.5175 l 4.2075,9.45 4.725,-9.09 q 0.27,-0.5175 0.5625,-0.6975 0.315,-0.18 0.9,-0.18 0.3375,0 0.54,0.068 0.225,0.045 0.36,0.1575 0.1575,0.09 0.27,0.27 0.1125,0.1575 0.225,0.3825 l 4.545,9.09 4.2975,-9.45 q 0.225,-0.5175 1.2375,-0.5175 0.6975,0 1.125,0.225 0.4275,0.2025 0.4275,0.585 0,0.2025 -0.135,0.4275 l -5.31,10.845 q -0.2025,0.4275 -0.6525,0.63 -0.4275,0.18 -1.0125,0.18 -0.5625,0 -1.0125,-0.18 -0.4275,-0.18 -0.63,-0.585 l -4.32,-8.775 -4.5,8.775 z"
         style="font-style:normal;font-variant:normal;font-weight:normal;font-stretch:normal;font-size:22.5px;font-family:Neuropol;-inkscape-font-specification:Neuropol;fill:#0000ff;fill-opacity:1"
         id="path4469"
         inkscape:connector-curvature="0" />
      <path
         d="m 94.608816,1037.9758 q 0,-0.72 0.405,-1.0575 0.4275,-0.3375 1.3725,-0.3375 0.945,0 1.35,0.3375 0.4275,0.3375 0.4275,1.0575 0,0.72 -0.4275,1.0575 -0.405,0.3375 -1.35,0.3375 -0.945,0 -1.3725,-0.3375 -0.405,-0.3375 -0.405,-1.0575 z"
         style="font-style:normal;font-variant:normal;font-weight:normal;font-stretch:normal;font-size:22.5px;font-family:Neuropol;-inkscape-font-specification:Neuropol;fill:#0000ff;fill-opacity:1"
         id="path4471"
         inkscape:connector-curvature="0" />
      <path
         d="m 102.56186,1026.5683 8.7975,0 q 6.3675,0 6.3675,3.915 l 0,4.8825 q 0,3.915 -6.3675,3.915 l -5.2875,0 q -6.367497,0 -6.367497,-3.915 l 0,-11.43 q 0,-0.6525 0.337497,-0.855 0.36,-0.2025 1.08,-0.2025 0.72,0 1.08,0.2025 0.36,0.2025 0.36,0.855 l 0,2.6325 z m 0,2.2725 0,6.525 q 0,0.675 0.855,1.17 0.855,0.4725 2.745,0.4725 l 5.1075,0 q 1.89,0 2.745,-0.4725 0.855,-0.495 0.855,-1.17 l 0,-4.8825 q 0,-0.6975 -0.855,-1.17 -0.855,-0.4725 -2.745,-0.4725 l -8.7075,0 z"
         style="font-style:normal;font-variant:normal;font-weight:normal;font-stretch:normal;font-size:22.5px;font-family:Neuropol;-inkscape-font-specification:Neuropol;fill:#0000ff;fill-opacity:1"
         id="path4473"
         inkscape:connector-curvature="0" />
      <path
         d="m 127.1062,1026.5683 q 0.5175,0 0.6525,0.2925 0.1575,0.2925 0.1575,0.855 0,0.5625 -0.1575,0.855 -0.135,0.27 -0.6525,0.27 l -1.755,0 q -1.665,0 -2.3175,0.4275 -0.6525,0.4275 -0.6525,1.1925 l 0,7.8525 q 0,0.6525 -0.36,0.855 -0.36,0.2025 -1.08,0.2025 -0.72,0 -1.08,-0.2025 -0.3375,-0.2025 -0.3375,-0.855 l 0,-7.8525 q 0,-1.9575 1.485,-2.925 1.5075,-0.9675 4.3425,-0.9675 l 1.755,0 z"
         style="font-style:normal;font-variant:normal;font-weight:normal;font-stretch:normal;font-size:22.5px;font-family:Neuropol;-inkscape-font-specification:Neuropol;fill:#0000ff;fill-opacity:1"
         id="path4475"
         inkscape:connector-curvature="0" />
      <path
         d="m 132.31495,1038.3133 q 0,0.6525 -0.36,0.855 -0.36,0.2025 -1.08,0.2025 -0.72,0 -1.08,-0.2025 -0.3375,-0.2025 -0.3375,-0.855 l 0,-10.62 q 0,-0.6525 0.3375,-0.855 0.36,-0.2025 1.08,-0.2025 0.72,0 1.08,0.2025 0.36,0.2025 0.36,0.855 l 0,10.62 z m -3.2175,-14.04 q 0,-0.72 0.405,-1.0575 0.4275,-0.3375 1.3725,-0.3375 0.945,0 1.35,0.3375 0.4275,0.3375 0.4275,1.0575 0,0.72 -0.4275,1.0575 -0.405,0.3375 -1.35,0.3375 -0.945,0 -1.3725,-0.3375 -0.405,-0.3375 -0.405,-1.0575 z"
         style="font-style:normal;font-variant:normal;font-weight:normal;font-stretch:normal;font-size:22.5px;font-family:Neuropol;-inkscape-font-specification:Neuropol;fill:#0000ff;fill-opacity:1"
         id="path4477"
         inkscape:connector-curvature="0" />
      <path
         d="m 157.37327,1039.3708 q -0.72,0 -1.08,-0.2025 -0.36,-0.2025 -0.36,-0.855 l 0,-7.83 q 0,-0.6975 -0.765,-1.17 -0.765,-0.4725 -2.655,-0.4725 l -1.26,0 q -0.945,0 -1.575,0.135 -0.6075,0.1125 -0.99,0.3375 -0.3825,0.225 -0.54,0.54 -0.1575,0.2925 -0.1575,0.63 l 0,7.83 q 0,0.6525 -0.36,0.855 -0.36,0.2025 -1.08,0.2025 -0.765,0 -1.1025,-0.225 -0.315,-0.225 -0.315,-0.8325 l 0,-7.83 q 0,-0.3375 -0.1575,-0.63 -0.1575,-0.315 -0.54,-0.54 -0.3825,-0.225 -1.0125,-0.3375 -0.6075,-0.135 -1.5525,-0.135 l -1.26,0 q -1.89,0 -2.655,0.4725 -0.765,0.4725 -0.765,1.17 l 0,7.83 q 0,0.6525 -0.36,0.855 -0.36,0.2025 -1.08,0.2025 -0.72,0 -1.08,-0.2025 -0.3375,-0.2025 -0.3375,-0.855 l 0,-7.83 q 0,-1.98 1.5075,-2.9475 1.53,-0.9675 4.275,-0.9675 l 2.2275,0 q 2.835,0 4.2075,1.125 1.395,-1.125 4.23,-1.125 l 2.2275,0 q 2.745,0 4.2525,0.9675 1.53,0.9675 1.53,2.9475 l 0,7.83 q 0,0.6525 -0.36,0.855 -0.3375,0.2025 -1.0575,0.2025 z"
         style="font-style:normal;font-variant:normal;font-weight:normal;font-stretch:normal;font-size:22.5px;font-family:Neuropol;-inkscape-font-specification:Neuropol;fill:#0000ff;fill-opacity:1"
         id="path4479"
         inkscape:connector-curvature="0" />
      <path
         d="m 163.6019,1026.5683 8.7975,0 q 6.3675,0 6.3675,3.915 l 0,4.8825 q 0,3.915 -6.3675,3.915 l -5.2875,0 q -6.3675,0 -6.3675,-3.915 l 0,-11.43 q 0,-0.6525 0.3375,-0.855 0.36,-0.2025 1.08,-0.2025 0.72,0 1.08,0.2025 0.36,0.2025 0.36,0.855 l 0,2.6325 z m 0,2.2725 0,6.525 q 0,0.675 0.855,1.17 0.855,0.4725 2.745,0.4725 l 5.1075,0 q 1.89,0 2.745,-0.4725 0.855,-0.495 0.855,-1.17 l 0,-4.8825 q 0,-0.6975 -0.855,-1.17 -0.855,-0.4725 -2.745,-0.4725 l -8.7075,0 z"
         style="font-style:normal;font-variant:normal;font-weight:normal;font-stretch:normal;font-size:22.5px;font-family:Neuropol;-inkscape-font-specification:Neuropol;fill:#0000ff;fill-opacity:1"
         id="path4481"
         inkscape:connector-curvature="0" />
      <path
         d="m 183.30874,1034.2183 0,1.1475 q 0,0.675 0.855,1.17 0.855,0.4725 2.745,0.4725 l 2.5875,0 q 0.5175,0 0.6525,0.2925 0.1575,0.27 0.1575,0.8325 0,0.5625 -0.1575,0.855 -0.135,0.2925 -0.6525,0.2925 l -2.6775,0 q -6.3675,0 -6.3675,-3.915 l 0,-4.8825 q 0,-3.915 6.3675,-3.915 l 5.1975,0 q 3.375,0 4.86,0.9675 1.5075,0.9675 1.5075,2.9475 l 0,2.5875 q 0,0.6525 -0.2475,0.9 -0.2475,0.2475 -1.1025,0.2475 l -13.725,0 z m 0,-2.2275 12.2175,0 0,-1.5075 q 0,-0.7875 -0.855,-1.215 -0.8325,-0.4275 -2.745,-0.4275 l -5.0175,0 q -1.89,0 -2.745,0.4725 -0.855,0.4725 -0.855,1.17 l 0,1.5075 z"
         style="font-style:normal;font-variant:normal;font-weight:normal;font-stretch:normal;font-size:22.5px;font-family:Neuropol;-inkscape-font-specification:Neuropol;fill:#0000ff;fill-opacity:1"
         id="path4483"
         inkscape:connector-curvature="0" />
      <path
         d="m 202.93507,1038.3133 q 0,0.6525 -0.36,0.855 -0.36,0.2025 -1.08,0.2025 -0.72,0 -1.08,-0.2025 -0.3375,-0.2025 -0.3375,-0.855 l 0,-14.3775 q 0,-0.6525 0.3375,-0.855 0.36,-0.2025 1.08,-0.2025 0.72,0 1.08,0.2025 0.36,0.2025 0.36,0.855 l 0,14.3775 z"
         style="font-style:normal;font-variant:normal;font-weight:normal;font-stretch:normal;font-size:22.5px;font-family:Neuropol;-inkscape-font-specification:Neuropol;fill:#0000ff;fill-opacity:1"
         id="path4485"
         inkscape:connector-curvature="0" />
      <path
         d="m 207.90089,1038.3133 q 0,0.6525 -0.36,0.855 -0.36,0.2025 -1.08,0.2025 -0.72,0 -1.08,-0.2025 -0.3375,-0.2025 -0.3375,-0.855 l 0,-14.3775 q 0,-0.6525 0.3375,-0.855 0.36,-0.2025 1.08,-0.2025 0.72,0 1.08,0.2025 0.36,0.2025 0.36,0.855 l 0,14.3775 z"
         style="font-style:normal;font-variant:normal;font-weight:normal;font-stretch:normal;font-size:22.5px;font-family:Neuropol;-inkscape-font-specification:Neuropol;fill:#0000ff;fill-opacity:1"
         id="path4487"
         inkscape:connector-curvature="0" />
      <path
         d="m 212.66421,1034.2183 0,1.1475 q 0,0.675 0.855,1.17 0.855,0.4725 2.745,0.4725 l 2.5875,0 q 0.5175,0 0.6525,0.2925 0.1575,0.27 0.1575,0.8325 0,0.5625 -0.1575,0.855 -0.135,0.2925 -0.6525,0.2925 l -2.6775,0 q -6.3675,0 -6.3675,-3.915 l 0,-4.8825 q 0,-3.915 6.3675,-3.915 l 5.1975,0 q 3.375,0 4.86,0.9675 1.5075,0.9675 1.5075,2.9475 l 0,2.5875 q 0,0.6525 -0.2475,0.9 -0.2475,0.2475 -1.1025,0.2475 l -13.725,0 z m 0,-2.2275 12.2175,0 0,-1.5075 q 0,-0.7875 -0.855,-1.215 -0.8325,-0.4275 -2.745,-0.4275 l -5.0175,0 q -1.89,0 -2.745,0.4725 -0.855,0.4725 -0.855,1.17 l 0,1.5075 z"
         style="font-style:normal;font-variant:normal;font-weight:normal;font-stretch:normal;font-size:22.5px;font-family:Neuropol;-inkscape-font-specification:Neuropol;fill:#0000ff;fill-opacity:1"
         id="path4489"
         inkscape:connector-curvature="0" />
      <path
         d="m 232.29054,1038.3133 q 0,0.6525 -0.36,0.855 -0.36,0.2025 -1.08,0.2025 -0.72,0 -1.08,-0.2025 -0.3375,-0.2025 -0.3375,-0.855 l 0,-14.3775 q 0,-0.6525 0.3375,-0.855 0.36,-0.2025 1.08,-0.2025 0.72,0 1.08,0.2025 0.36,0.2025 0.36,0.855 l 0,14.3775 z"
         style="font-style:normal;font-variant:normal;font-weight:normal;font-stretch:normal;font-size:22.5px;font-family:Neuropol;-inkscape-font-specification:Neuropol;fill:#0000ff;fill-opacity:1"
         id="path4491"
         inkscape:connector-curvature="0" />
      <path
         d="m 240.42886,1039.2808 q -6.3675,0 -6.3675,-3.915 l 0,-1.1925 q 0,-3.915 6.3675,-3.915 l 9.63,0 0,-0.023 q 0,-0.6525 -0.855,-1.0125 -0.8325,-0.3825 -2.745,-0.3825 l -2.115,0 q -0.5175,0 -0.675,-0.27 -0.1575,-0.2925 -0.1575,-0.855 0,-0.585 0.1575,-0.855 0.1575,-0.2925 0.675,-0.2925 l 2.205,0 q 6.3675,0 6.3675,3.915 l 0,4.8825 q 0,3.915 -6.3675,3.915 l -6.12,0 z m 6.03,-2.2725 q 1.89,0 2.745,-0.4725 0.855,-0.495 0.855,-1.17 l 0,-2.925 -9.54,0 q -1.89,0 -2.745,0.4725 -0.855,0.4725 -0.855,1.17 l 0,1.2825 q 0,0.675 0.855,1.17 0.855,0.4725 2.745,0.4725 l 5.94,0 z"
         style="font-style:normal;font-variant:normal;font-weight:normal;font-stretch:normal;font-size:22.5px;font-family:Neuropol;-inkscape-font-specification:Neuropol;fill:#0000ff;fill-opacity:1"
         id="path4493"
         inkscape:connector-curvature="0" />
      <path
         d="m 257.55698,1026.5683 8.7975,0 q 6.3675,0 6.3675,3.915 l 0,4.8825 q 0,3.915 -6.3675,3.915 l -5.2875,0 q -6.3675,0 -6.3675,-3.915 l 0,-11.43 q 0,-0.6525 0.3375,-0.855 0.36,-0.2025 1.08,-0.2025 0.72,0 1.08,0.2025 0.36,0.2025 0.36,0.855 l 0,2.6325 z m 0,2.2725 0,6.525 q 0,0.675 0.855,1.17 0.855,0.4725 2.745,0.4725 l 5.1075,0 q 1.89,0 2.745,-0.4725 0.855,-0.495 0.855,-1.17 l 0,-4.8825 q 0,-0.6975 -0.855,-1.17 -0.855,-0.4725 -2.745,-0.4725 l -8.7075,0 z"
         style="font-style:normal;font-variant:normal;font-weight:normal;font-stretch:normal;font-size:22.5px;font-family:Neuropol;-inkscape-font-specification:Neuropol;fill:#0000ff;fill-opacity:1"
         id="path4495"
         inkscape:connector-curvature="0" />
      <path
         d="m 274.12542,1037.9758 q 0,-0.72 0.405,-1.0575 0.4275,-0.3375 1.3725,-0.3375 0.945,0 1.35,0.3375 0.4275,0.3375 0.4275,1.0575 0,0.72 -0.4275,1.0575 -0.405,0.3375 -1.35,0.3375 -0.945,0 -1.3725,-0.3375 -0.405,-0.3375 -0.405,-1.0575 z"
         style="font-style:normal;font-variant:normal;font-weight:normal;font-stretch:normal;font-size:22.5px;font-family:Neuropol;-inkscape-font-specification:Neuropol;fill:#0000ff;fill-opacity:1"
         id="path4497"
         inkscape:connector-curvature="0" />
      <path
         d="m 285.47596,1039.2808 q -6.3675,0 -6.3675,-3.915 l 0,-4.8825 q 0,-3.915 6.3675,-3.915 l 11.25,0 q 0.5175,0 0.675,0.2925 0.1575,0.27 0.1575,0.855 0,0.5625 -0.1575,0.855 -0.1575,0.27 -0.675,0.27 l -11.16,0 q -1.89,0 -2.745,0.4725 -0.855,0.4725 -0.855,1.17 l 0,4.8825 q 0,0.675 0.855,1.17 0.855,0.4725 2.745,0.4725 l 11.2275,0 q 0.5175,0 0.6525,0.2925 0.1575,0.27 0.1575,0.8325 0,0.5625 -0.1575,0.855 -0.135,0.2925 -0.6525,0.2925 l -11.3175,0 z"
         style="font-style:normal;font-variant:normal;font-weight:normal;font-stretch:normal;font-size:22.5px;font-family:Neuropol;-inkscape-font-specification:Neuropol;fill:#0000ff;fill-opacity:1"
         id="path4499"
         inkscape:connector-curvature="0" />
      <path
         d="m 299.19147,1030.4833 q 0,-3.915 6.3675,-3.915 l 4.905,0 q 6.3675,0 6.3675,3.915 l 0,4.8825 q 0,3.915 -6.3675,3.915 l -4.905,0 q -6.3675,0 -6.3675,-3.915 l 0,-4.8825 z m 14.7825,0 q 0,-0.6975 -0.855,-1.17 -0.855,-0.4725 -2.745,-0.4725 l -4.725,0 q -1.89,0 -2.745,0.4725 -0.855,0.4725 -0.855,1.17 l 0,4.8825 q 0,0.675 0.855,1.17 0.855,0.4725 2.745,0.4725 l 4.725,0 q 1.89,0 2.745,-0.4725 0.855,-0.495 0.855,-1.17 l 0,-4.8825 z"
         style="font-style:normal;font-variant:normal;font-weight:normal;font-stretch:normal;font-size:22.5px;font-family:Neuropol;-inkscape-font-specification:Neuropol;fill:#0000ff;fill-opacity:1"
         id="path4501"
         inkscape:connector-curvature="0" />
      <path
         d="m 341.63596,1039.3708 q -0.72,0 -1.08,-0.2025 -0.36,-0.2025 -0.36,-0.855 l 0,-7.83 q 0,-0.6975 -0.765,-1.17 -0.765,-0.4725 -2.655,-0.4725 l -1.26,0 q -0.945,0 -1.575,0.135 -0.6075,0.1125 -0.99,0.3375 -0.3825,0.225 -0.54,0.54 -0.1575,0.2925 -0.1575,0.63 l 0,7.83 q 0,0.6525 -0.36,0.855 -0.36,0.2025 -1.08,0.2025 -0.765,0 -1.1025,-0.225 -0.315,-0.225 -0.315,-0.8325 l 0,-7.83 q 0,-0.3375 -0.1575,-0.63 -0.1575,-0.315 -0.54,-0.54 -0.3825,-0.225 -1.0125,-0.3375 -0.6075,-0.135 -1.5525,-0.135 l -1.26,0 q -1.89,0 -2.655,0.4725 -0.765,0.4725 -0.765,1.17 l 0,7.83 q 0,0.6525 -0.36,0.855 -0.36,0.2025 -1.08,0.2025 -0.72,0 -1.08,-0.2025 -0.3375,-0.2025 -0.3375,-0.855 l 0,-7.83 q 0,-1.98 1.5075,-2.9475 1.53,-0.9675 4.275,-0.9675 l 2.2275,0 q 2.835,0 4.2075,1.125 1.395,-1.125 4.23,-1.125 l 2.2275,0 q 2.745,0 4.2525,0.9675 1.53,0.9675 1.53,2.9475 l 0,7.83 q 0,0.6525 -0.36,0.855 -0.3375,0.2025 -1.0575,0.2025 z"
         style="font-style:normal;font-variant:normal;font-weight:normal;font-stretch:normal;font-size:22.5px;font-family:Neuropol;-inkscape-font-specification:Neuropol;fill:#0000ff;fill-opacity:1"
         id="path4503"
         inkscape:connector-curvature="0" />
    </g>
    <g
       id="layer1-7"
       inkscape:label="Layer 1"
       transform="matrix(0.41784282,0,0,0.41784282,49.276788,520.84607)">
      <path
         inkscape:connector-curvature="0"
         id="path8172-3-3-7"
         d="m 306.0686,699.64804 a 106,106 0 0 0 -106,106 106,106 0 0 0 106,106 106,106 0 0 0 106,-106 106,106 0 0 0 -106,-106 z m -0.64062,11.62304 c 14.06042,-0.49736 23.76472,35.03515 35.21875,43.20508 12.10371,8.63333 49.89318,7.16254 54.98437,21.13086 4.81793,13.21856 -25.97841,33.42958 -30.20898,46.84766 -4.47053,14.17916 8.60397,49.6638 -3.10742,58.82226 -11.08278,8.66688 -39.82,-14.3768 -53.88867,-14.2539 -14.86666,0.12987 -44.57311,23.53268 -56.90235,15.2246 -11.66745,-7.86213 1.36669,-42.31412 -3.09765,-55.65624 -4.71757,-14.0989 -36.15401,-35.12093 -32.0625,-49.41407 3.87189,-13.52594 40.667,-11.77574 51.97656,-20.14453 11.95104,-8.84347 22.22996,-45.23615 37.08789,-45.76172 z"
         style="fill:#0000ff;fill-opacity:1;fill-rule:evenodd;stroke:none;stroke-width:5;stroke-linecap:round;stroke-linejoin:round;stroke-miterlimit:4;stroke-dasharray:none;stroke-opacity:1" />
      <circle
         inkscape:export-ydpi="169.81"
         inkscape:export-xdpi="169.81"
         r="59.173321"
         cy="805.64807"
         cx="306.0686"
         id="path8124-7-6-9"
         style="fill:none;fill-opacity:0;fill-rule:evenodd;stroke:#0000ff;stroke-width:11.58569717;stroke-linecap:round;stroke-linejoin:round;stroke-miterlimit:4;stroke-dasharray:none;stroke-opacity:1" />
      <circle
         inkscape:export-ydpi="169.81"
         inkscape:export-xdpi="169.81"
         r="6"
         cy="805.64807"
         cx="306.0686"
         id="path8126-5-2-3"
         style="fill:#0000ff;fill-opacity:1;fill-rule:evenodd;stroke:none;stroke-width:7;stroke-linecap:round;stroke-linejoin:round;stroke-miterlimit:4;stroke-dasharray:none;stroke-opacity:1" />
    </g>
  </g>
</svg>
